<svg xmlns="http://www.w3.org/2000/svg" width="1448" height="1507" viewBox="0 0 1448 1507">
  <g fill="none" fill-rule="evenodd">
    <g stroke="#FFF" stroke-width="3.612" transform="translate(1 .33)">
      <path vector-effect="non-scaling-stroke" stroke-dasharray="10.768 10.768" d="M1431.2876,0.957 L0.2706,1417.606"/>
      <path vector-effect="non-scaling-stroke" stroke-dasharray="10.755 10.755" d="M4.1187,2.0786 L1445.17822,1431.63901"/>
    </g>
    <path vector-effect="non-scaling-stroke" stroke="#FFF" stroke-dasharray="9.957 9.957" stroke-width="3.5" d="M1334.0615,1335.0533 L104.4055,1335.0533"/>
    <path vector-effect="non-scaling-stroke" stroke="#FFF" stroke-dasharray="10.061 10.061" stroke-width="3.5" d="M94.4492,1319.9615 L94.4492,97.5345"/>
    <path vector-effect="non-scaling-stroke" stroke="#FFF" stroke-dasharray="9.957 9.957" stroke-width="3.5" d="M109.3843,87.4733 L1339.0403,87.4733"/>
    <path vector-effect="non-scaling-stroke" stroke="#FFF" stroke-dasharray="10.061 10.061" stroke-width="3.5" d="M1348.9966,102.5651 L1348.9966,1324.9921"/>
    <path vector-effect="non-scaling-stroke" stroke="#FFF" stroke-width="3.5" d="M99.4277,1335.0533 L94.4487,1335.0533 L94.4487,1330.0223 M94.4487,92.5043 L94.4487,87.4733 L99.4277,87.4733 M1344.0187,87.4733 L1348.9967,87.4733 L1348.9967,92.5043 M1348.9967,1330.0223 L1348.9967,1335.0533 L1344.0187,1335.0533"/>
    <g stroke="#FFF" stroke-dasharray="10.609 10.609" stroke-width="3.612" transform="translate(1173 1154.33)">
      <path vector-effect="non-scaling-stroke" d="M273.004547 321.979721C247.969046 338.607151 218.422114 348.982743 186.5916 350.8785M160.0962 350.4843C74.0522 342.7643 5.8912 272.9723.7242 186.2163M1.1187 159.7212C8.8387 73.6772 78.6307 5.5162 165.3857.3482M191.8816.7433C221.730321 3.42137315 249.427001 13.5691953 273.088474 29.3036856"/>
    </g>
  </g>
</svg>
