<svg xmlns="http://www.w3.org/2000/svg" width="240" height="60" viewBox="0 0 240 60">
  <path d="M0.0005836,11.6722615 C0.0005836,5.81717308 4.7308028,1.08695388 10.5858912,1.08695388 C14.7680972,1.08695388 18.2869188,3.25016388 20.0463296,6.53824308 L16.4121368,8.55723908 C15.2007392,6.45171468 13.2394288,5.12494588 10.5858912,5.12494588 C7.009384,5.12494588 4.2116324,8.09575428 4.2116324,11.6722615 C4.2116324,15.2487687 7.009384,18.2195771 10.5858912,18.2195771 C13.2394288,18.2195771 15.2007392,16.8928083 16.4121368,14.7872839 L20.0463296,16.8062799 C18.2869188,20.0943591 14.7680972,22.2575691 10.5858912,22.2575691 C4.7308028,22.2575691 0.0005836,17.5273499 0.0005836,11.6722615 Z M22.5556532,21.9114555 L22.5556532,0.856211483 L26.5071168,0.856211483 L26.5071168,8.70145308 C27.4300864,7.72079788 28.8433836,7.17278468 30.4297376,7.17278468 C34.0639304,7.17278468 36.1982976,9.71095108 36.1982976,13.5470435 L36.1982976,21.9114555 L32.246834,21.9114555 L32.246834,14.2104279 C32.246834,12.1625891 31.3527072,10.7781347 29.5644536,10.7781347 C28.2376848,10.7781347 27.1128156,11.4703619 26.5071168,12.4221743 L26.5071168,21.9114555 L22.5556532,21.9114555 Z M44.3319672,3.19247828 C44.3319672,4.57693268 43.207098,5.70180188 41.7938008,5.70180188 C40.4381892,5.70180188 39.2844772,4.57693268 39.2844772,3.19247828 C39.2844772,1.80802388 40.4381892,0.683154683 41.7938008,0.683154683 C43.207098,0.683154683 44.3319672,1.80802388 44.3319672,3.19247828 Z M39.8324904,21.9114555 L39.8324904,7.49005548 L43.783954,7.49005548 L43.783954,21.9114555 L39.8324904,21.9114555 Z M61.1473196,18.0753631 C59.9070792,20.5558439 57.3112272,22.2287263 54.311576,22.2287263 C50.0428416,22.2287263 46.668234,19.0560183 46.668234,14.7007555 C46.668234,10.3454927 50.0428416,7.17278468 54.311576,7.17278468 C57.3112272,7.17278468 59.9070792,8.84566708 61.1473196,11.3261479 L57.7150264,13.1720871 C57.1381704,11.8453183 55.89793,10.8646631 54.311576,10.8646631 C52.2348944,10.8646631 50.6485404,12.4798599 50.6485404,14.7007555 C50.6485404,16.9216511 52.2348944,18.5368479 54.311576,18.5368479 C55.89793,18.5368479 57.1381704,17.5561927 57.7150264,16.2294239 L61.1473196,18.0753631 Z M73.5785664,20.8442719 C72.7421252,21.6807131 71.4153564,22.2287263 69.886688,22.2287263 C65.6179536,22.2287263 62.7625164,18.7387475 62.7625164,14.7007555 C62.7625164,10.6627635 65.6179536,7.17278468 69.886688,7.17278468 C71.4153564,7.17278468 72.7421252,7.72079788 73.5785664,8.52839628 L73.5785664,7.49005548 L77.53003,7.49005548 L77.53003,21.9114555 L73.5785664,21.9114555 L73.5785664,20.8442719 Z M66.858194,14.7007555 C66.858194,16.8351227 68.3291768,18.6233763 70.463544,18.6233763 C71.9922124,18.6233763 72.915182,17.9599919 73.5785664,17.0370223 L73.5785664,12.3356459 C72.915182,11.4415191 71.9922124,10.7781347 70.463544,10.7781347 C68.3291768,10.7781347 66.858194,12.5663883 66.858194,14.7007555 Z M95.2971948,21.1038571 C95.2971948,26.2090327 91.374574,27.7953867 87.7403812,27.7953867 C85.3752716,27.7953867 82.9813192,27.1608451 81.3661224,25.7763907 L83.5293324,22.8344251 C84.7695728,23.8727659 86.2405556,24.3342507 87.6826956,24.3342507 C89.4421064,24.3342507 91.3457312,23.3535955 91.3457312,21.1326999 L91.3457312,20.2385731 C90.50929,21.0750143 89.211364,21.6230275 87.62501,21.6230275 C83.4716468,21.6230275 80.3854672,18.4503195 80.41431,14.4123275 C80.4431528,10.3743355 83.4716468,7.17278468 87.62501,7.17278468 C89.211364,7.17278468 90.50929,7.72079788 91.3457312,8.52839628 L91.3457312,7.49005548 L95.2971948,7.49005548 L95.2971948,21.1038571 Z M84.5099876,14.4123275 C84.5099876,16.5178519 86.0963416,18.0465203 88.2307088,18.0465203 C89.7593772,18.0465203 90.7111896,17.3542931 91.3457312,16.4313235 L91.3457312,12.3356459 C90.7111896,11.4415191 89.7593772,10.7781347 88.2307088,10.7781347 C86.0963416,10.7781347 84.5099876,12.2779603 84.5099876,14.4123275 Z M113.323945,14.7007555 C113.323945,18.9118043 109.920494,22.2287263 105.738288,22.2287263 C101.556082,22.2287263 98.152632,18.9118043 98.152632,14.7007555 C98.152632,10.4897067 101.556082,7.17278468 105.738288,7.17278468 C109.920494,7.17278468 113.323945,10.4897067 113.323945,14.7007555 Z M102.132938,14.7007555 C102.132938,16.9216511 103.661607,18.5368479 105.738288,18.5368479 C107.81497,18.5368479 109.314796,16.9216511 109.314796,14.7007555 C109.314796,12.4798599 107.81497,10.8646631 105.738288,10.8646631 C103.661607,10.8646631 102.132938,12.4798599 102.132938,14.7007555 Z M123.043968,21.9114555 L123.043968,1.43306748 L127.226174,1.43306748 L127.226174,17.9311491 L135.994386,17.9311491 L135.994386,21.9114555 L123.043968,21.9114555 Z M137.321154,14.4411703 C137.321154,10.1724359 140.522705,6.91319948 144.906811,6.91319948 C148.685218,6.91319948 152.00214,9.33599468 152.00214,14.0085283 C152.00214,14.3546419 152.00214,14.7584411 151.944454,15.3641399 L141.157247,15.3641399 C141.387989,17.2966075 143.089714,18.3637911 144.993339,18.3637911 C146.781593,18.3637911 148.079519,17.5273499 148.71406,16.5466947 L151.656026,18.7387475 C150.329257,20.6712151 147.99299,21.9691411 144.964496,21.9691411 C140.666919,21.9691411 137.321154,18.9983327 137.321154,14.4411703 Z M144.79144,10.1724359 C143.320457,10.1724359 141.676417,10.9223487 141.301461,12.6817595 L148.050676,12.6817595 C147.704562,10.9800343 146.262422,10.1724359 144.79144,10.1724359 Z M164.808343,20.5846867 C163.971902,21.4211279 162.645133,21.9691411 161.116464,21.9691411 C156.84773,21.9691411 153.992293,18.4791623 153.992293,14.4411703 C153.992293,10.4031783 156.84773,6.91319948 161.116464,6.91319948 C162.645133,6.91319948 163.971902,7.46121268 164.808343,8.26881108 L164.808343,7.23047028 L168.759806,7.23047028 L168.759806,21.6518703 L164.808343,21.6518703 L164.808343,20.5846867 Z M158.08797,14.4411703 C158.08797,16.5755375 159.558953,18.3637911 161.69332,18.3637911 C163.221989,18.3637911 164.144958,17.7004067 164.808343,16.7774371 L164.808343,12.0760607 C164.144958,11.1819339 163.221989,10.5185495 161.69332,10.5185495 C159.558953,10.5185495 158.08797,12.3068031 158.08797,14.4411703 Z M172.567056,21.6518703 L172.567056,7.23047028 L176.51852,7.23047028 L176.51852,8.96103828 C177.008847,7.92269748 178.364459,7.05741348 179.864284,7.05741348 C180.585354,7.05741348 181.219896,7.20162748 181.537167,7.31699868 L180.931468,11.0377199 C180.758411,10.9800343 180.296926,10.8646631 179.72007,10.8646631 C178.624044,10.8646631 177.210747,11.3261479 176.51852,12.4798599 L176.51852,21.6518703 L172.567056,21.6518703 Z M183.72922,21.6518703 L183.72922,7.23047028 L187.680683,7.23047028 L187.680683,8.44186788 C188.603653,7.46121268 190.01695,6.91319948 191.603304,6.91319948 C195.237497,6.91319948 197.371864,9.45136588 197.371864,13.2874583 L197.371864,21.6518703 L193.4204,21.6518703 L193.4204,13.9508427 C193.4204,11.9030039 192.526274,10.5185495 190.73802,10.5185495 C189.411251,10.5185495 188.286382,11.2107767 187.680683,12.1625891 L187.680683,21.6518703 L183.72922,21.6518703 Z M205.505534,2.93289308 C205.505534,4.31734748 204.380664,5.44221668 202.967367,5.44221668 C201.611756,5.44221668 200.458044,4.31734748 200.458044,2.93289308 C200.458044,1.54843868 201.611756,0.423569483 202.967367,0.423569483 C204.380664,0.423569483 205.505534,1.54843868 205.505534,2.93289308 Z M201.006057,21.6518703 L201.006057,7.23047028 L204.95752,7.23047028 L204.95752,21.6518703 L201.006057,21.6518703 Z M208.76477,21.6518703 L208.76477,7.23047028 L212.716234,7.23047028 L212.716234,8.44186788 C213.639203,7.46121268 215.0525,6.91319948 216.638854,6.91319948 C220.273047,6.91319948 222.407414,9.45136588 222.407414,13.2874583 L222.407414,21.6518703 L218.455951,21.6518703 L218.455951,13.9508427 C218.455951,11.9030039 217.561824,10.5185495 215.77357,10.5185495 C214.446802,10.5185495 213.321932,11.2107767 212.716234,12.1625891 L212.716234,21.6518703 L208.76477,21.6518703 Z M240.001522,20.8442719 C240.001522,25.9494475 236.078902,27.5358015 232.444709,27.5358015 C230.079599,27.5358015 227.685647,26.9012599 226.07045,25.5168055 L228.23366,22.5748399 C229.4739,23.6131807 230.944883,24.0746655 232.387023,24.0746655 C234.146434,24.0746655 236.050059,23.0940103 236.050059,20.8731147 L236.050059,19.9789879 C235.213618,20.8154291 233.915692,21.3634423 232.329338,21.3634423 C228.175974,21.3634423 225.089795,18.1907343 225.118638,14.1527423 C225.14748,10.1147503 228.175974,6.91319948 232.329338,6.91319948 C233.915692,6.91319948 235.213618,7.46121268 236.050059,8.26881108 L236.050059,7.23047028 L240.001522,7.23047028 L240.001522,20.8442719 Z M229.214315,14.1527423 C229.214315,16.2582667 230.800669,17.7869351 232.935036,17.7869351 C234.463705,17.7869351 235.415517,17.0947079 236.050059,16.1717383 L236.050059,12.0760607 C235.415517,11.1819339 234.463705,10.5185495 232.935036,10.5185495 C230.800669,10.5185495 229.214315,12.0183751 229.214315,14.1527423 Z M1.2119812,54.1288631 L1.2119812,33.6504751 L13.9604988,33.6504751 L13.9604988,37.6307815 L5.3941872,37.6307815 L5.3941872,41.8418303 L12.2299308,41.8418303 L12.2299308,45.8221367 L5.3941872,45.8221367 L5.3941872,50.1485567 L13.9604988,50.1485567 L13.9604988,54.1288631 L1.2119812,54.1288631 Z M15.4026388,54.1288631 L20.998142,47.0623771 L15.5468528,39.7074631 L20.2193864,39.7074631 L23.4786228,44.1204115 L26.7378592,39.7074631 L31.4392356,39.7074631 L25.9879464,47.0623771 L31.5834496,54.1288631 L26.8532304,54.1288631 L23.5074656,49.8601287 L20.1617008,54.1288631 L15.4026388,54.1288631 Z M46.2932776,50.2927707 C45.0530372,52.7732515 42.4571852,54.4461339 39.457534,54.4461339 C35.1887996,54.4461339 31.814192,51.2734259 31.814192,46.9181631 C31.814192,42.5629003 35.1887996,39.3901923 39.457534,39.3901923 C42.4571852,39.3901923 45.0530372,41.0630747 46.2932776,43.5435555 L42.8609844,45.3894947 C42.2841284,44.0627259 41.043888,43.0820707 39.457534,43.0820707 C37.3808524,43.0820707 35.7944984,44.6972675 35.7944984,46.9181631 C35.7944984,49.1390587 37.3808524,50.7542555 39.457534,50.7542555 C41.043888,50.7542555 42.2841284,49.7736003 42.8609844,48.4468315 L46.2932776,50.2927707 Z M48.831444,54.1288631 L48.831444,33.0736191 L52.7829076,33.0736191 L52.7829076,40.9188607 C53.7058772,39.9382055 55.1191744,39.3901923 56.7055284,39.3901923 C60.3397212,39.3901923 62.4740884,41.9283587 62.4740884,45.7644511 L62.4740884,54.1288631 L58.5226248,54.1288631 L58.5226248,46.4278355 C58.5226248,44.3799967 57.628498,42.9955423 55.8402444,42.9955423 C54.5134756,42.9955423 53.3886064,43.6877695 52.7829076,44.6395819 L52.7829076,54.1288631 L48.831444,54.1288631 Z M76.0013616,53.0616795 C75.1649204,53.8981207 73.8381516,54.4461339 72.3094832,54.4461339 C68.0407488,54.4461339 65.1853116,50.9561551 65.1853116,46.9181631 C65.1853116,42.8801711 68.0407488,39.3901923 72.3094832,39.3901923 C73.8381516,39.3901923 75.1649204,39.9382055 76.0013616,40.7458039 L76.0013616,39.7074631 L79.9528252,39.7074631 L79.9528252,54.1288631 L76.0013616,54.1288631 L76.0013616,53.0616795 Z M69.2809892,46.9181631 C69.2809892,49.0525303 70.751972,50.8407839 72.8863392,50.8407839 C74.4150076,50.8407839 75.3379772,50.1773995 76.0013616,49.2544299 L76.0013616,44.5530535 C75.3379772,43.6589267 74.4150076,42.9955423 72.8863392,42.9955423 C70.751972,42.9955423 69.2809892,44.7837959 69.2809892,46.9181631 Z M83.7600748,54.1288631 L83.7600748,39.7074631 L87.7115384,39.7074631 L87.7115384,40.9188607 C88.634508,39.9382055 90.0478052,39.3901923 91.6341592,39.3901923 C95.268352,39.3901923 97.4027192,41.9283587 97.4027192,45.7644511 L97.4027192,54.1288631 L93.4512556,54.1288631 L93.4512556,46.4278355 C93.4512556,44.3799967 92.5571288,42.9955423 90.7688752,42.9955423 C89.4421064,42.9955423 88.3172372,43.6877695 87.7115384,44.6395819 L87.7115384,54.1288631 L83.7600748,54.1288631 Z M114.996827,53.3212647 C114.996827,58.4264403 111.074206,60.0127943 107.440014,60.0127943 C105.074904,60.0127943 102.680952,59.3782527 101.065755,57.9937983 L103.228965,55.0518327 C104.469205,56.0901735 105.940188,56.5516583 107.382328,56.5516583 C109.141739,56.5516583 111.045364,55.5710031 111.045364,53.3501075 L111.045364,52.4559807 C110.208922,53.2924219 108.910996,53.8404351 107.324642,53.8404351 C103.171279,53.8404351 100.0851,50.6677271 100.113942,46.6297351 C100.142785,42.5917431 103.171279,39.3901923 107.324642,39.3901923 C108.910996,39.3901923 110.208922,39.9382055 111.045364,40.7458039 L111.045364,39.7074631 L114.996827,39.7074631 L114.996827,53.3212647 Z M104.20962,46.6297351 C104.20962,48.7352595 105.795974,50.2639279 107.930341,50.2639279 C109.45901,50.2639279 110.410822,49.5717007 111.045364,48.6487311 L111.045364,44.5530535 C110.410822,43.6589267 109.45901,42.9955423 107.930341,42.9955423 C105.795974,42.9955423 104.20962,44.4953679 104.20962,46.6297351 Z M117.881107,46.9181631 C117.881107,42.6494287 121.082658,39.3901923 125.466764,39.3901923 C129.24517,39.3901923 132.562092,41.8129875 132.562092,46.4855211 C132.562092,46.8316347 132.562092,47.2354339 132.504407,47.8411327 L121.7172,47.8411327 C121.947942,49.7736003 123.649667,50.8407839 125.553292,50.8407839 C127.341546,50.8407839 128.639472,50.0043427 129.274013,49.0236875 L132.215979,51.2157403 C130.88921,53.1482079 128.552943,54.4461339 125.524449,54.4461339 C121.226872,54.4461339 117.881107,51.4753255 117.881107,46.9181631 Z M125.351392,42.6494287 C123.88041,42.6494287 122.23637,43.3993415 121.861414,45.1587523 L128.610629,45.1587523 C128.264515,43.4570271 126.822375,42.6494287 125.351392,42.6494287 Z"/>
</svg>
