<svg xmlns="http://www.w3.org/2000/svg" width="81" height="81" viewBox="0 0 81 81">
  <path d="M80.6362,6.1335 C80.6362,7.6635 80.0522,9.1925 78.8852,10.3605 L10.3502,78.8955 C8.0162,81.2295 4.2312,81.2295 1.8972,78.8955 C-0.4368,76.5605 -0.4368,72.7765 1.8972,70.4425 L70.4322,1.9065 C72.7662,-0.4275 76.5512,-0.4275 78.8852,1.9065 C80.0522,3.0745 80.6362,4.6035 80.6362,6.1335"/>
  <path d="M80.6362,74.6687 C80.6362,76.1987 80.0522,77.7277 78.8852,78.8957 C76.5512,81.2297 72.7662,81.2297 70.4322,78.8957 L1.8972,10.3597 C-0.4368,8.0257 -0.4368,4.2417 1.8972,1.9067 C4.2312,-0.4273 8.0162,-0.4273 10.3502,1.9067 L78.8852,70.4417 C80.0522,71.6097 80.6362,73.1387 80.6362,74.6687"/>
</svg>
