<svg xmlns="http://www.w3.org/2000/svg" width="16" height="13" viewBox="0 0 16 13">
  <path fill-rule="evenodd" d="M5.0319,13.0404 C11.0699,13.0404 14.3719,8.0234 14.3719,3.6744 C14.3719,3.5314 14.3689,3.3894 14.3629,3.2484 C15.0029,2.7844 15.5609,2.2044 15.9999,1.5434 C15.4119,1.8064 14.7789,1.9824 14.1149,2.0614 C14.7929,1.6544 15.3129,1.0094 15.5579,0.2414 C14.9239,0.6184 14.2219,0.8934 13.4739,1.0404 C12.8749,0.4004 12.0219,-0.0006 11.0779,-0.0006 C9.2649,-0.0006 7.7949,1.4744 7.7949,3.2924 C7.7949,3.5504 7.8239,3.8014 7.8799,4.0424 C5.1519,3.9054 2.7329,2.5944 1.1139,0.6024 C0.8319,1.0894 0.6689,1.6544 0.6689,2.2574 C0.6689,3.3994 1.2489,4.4084 2.1299,4.9974 C1.5919,4.9804 1.0859,4.8324 0.6429,4.5864 C0.6419,4.6004 0.6419,4.6134 0.6419,4.6274 C0.6419,6.2224 1.7739,7.5534 3.2759,7.8554 C2.9999,7.9304 2.7099,7.9714 2.4109,7.9714 C2.1989,7.9714 1.9939,7.9504 1.7939,7.9114 C2.2119,9.2194 3.4229,10.1714 4.8599,10.1984 C3.7369,11.0814 2.3209,11.6074 0.7829,11.6074 C0.5179,11.6074 0.2569,11.5924 -0.0001,11.5614 C1.4529,12.4954 3.1779,13.0404 5.0319,13.0404"/>
</svg>
