<svg xmlns="http://www.w3.org/2000/svg" width="16" height="16" viewBox="0 0 16 16">
  <path fill-rule="evenodd" d="M15.1169,0.0001 L0.8829,0.0001 C0.3949,0.0001 -0.0001,0.3961 -0.0001,0.8861 L-0.0001,15.1601 C-0.0001,15.6491 0.3949,16.0451 0.8829,16.0451 L8.5459,16.0451 L8.5459,9.8321 L6.4609,9.8321 L6.4609,7.4101 L8.5459,7.4101 L8.5459,5.6241 C8.5459,3.5521 9.8079,2.4231 11.6519,2.4231 C12.5349,2.4231 13.2939,2.4891 13.5149,2.5191 L13.5149,4.6851 L12.2369,4.6851 C11.2339,4.6851 11.0399,5.1631 11.0399,5.8641 L11.0399,7.4101 L13.4309,7.4101 L13.1199,9.8321 L11.0399,9.8321 L11.0399,16.0451 L15.1169,16.0451 C15.6049,16.0451 15.9999,15.6491 15.9999,15.1601 L15.9999,0.8861 C15.9999,0.3961 15.6049,0.0001 15.1169,0.0001"/>
</svg>
