<svg xmlns="http://www.w3.org/2000/svg" width="16" height="16" viewBox="0 0 16 16">
  <path fill-rule="evenodd" d="M14.8846,1.0003 L1.1856,1.0003 C0.5316,1.0003 -0.0004,1.5203 -0.0004,2.1623 L-0.0004,15.9563 C-0.0004,16.5983 0.5316,17.1193 1.1856,17.1193 L14.8846,17.1193 C15.5406,17.1193 16.0736,16.5983 16.0736,15.9563 L16.0736,2.1623 C16.0736,1.5203 15.5406,1.0003 14.8846,1.0003 Z M2.3826,14.7353 L4.7686,14.7353 L4.7686,7.0433 L2.3826,7.0433 L2.3826,14.7353 Z M3.5756,5.9923 C2.8096,5.9923 2.1926,5.3713 2.1926,4.6053 C2.1926,3.8403 2.8096,3.2193 3.5756,3.2193 C4.3376,3.2193 4.9576,3.8403 4.9576,4.6053 C4.9576,5.3713 4.3376,5.9923 3.5756,5.9923 Z M13.6976,14.7353 L11.3136,14.7353 L11.3136,10.9943 C11.3136,10.1033 11.2986,8.9553 10.0746,8.9553 C8.8336,8.9553 8.6446,9.9273 8.6446,10.9313 L8.6446,14.7353 L6.2636,14.7353 L6.2636,7.0423 L8.5486,7.0423 L8.5486,8.0953 L8.5816,8.0953 C8.8996,7.4903 9.6776,6.8523 10.8376,6.8523 C13.2516,6.8523 13.6976,8.4453 13.6976,10.5163 L13.6976,14.7353 Z"/>
</svg>
