<svg xmlns="http://www.w3.org/2000/svg" width="1527" height="1507" viewBox="0 0 1527 1507"><g fill="none" stroke-width="3.612" vector-effect="non-scaling-stroke" stroke-dasharray="10.768 10.768"><path vector-effect="non-scaling-stroke" d="M1431.288 7.957L.27 1424.606"/><path vector-effect="non-scaling-stroke" d="M4.119.079l1458.34 1446.703"/><path vector-effect="non-scaling-stroke" d="M1333.062 1332.923H103.406"/><path vector-effect="non-scaling-stroke" d="M93.45 1317.832V95.403"/><path vector-effect="non-scaling-stroke" d="M108.384 85.343H1338.04"/><path vector-effect="non-scaling-stroke" d="M1347.997 100.435v1222.427"/><path vector-effect="non-scaling-stroke" d="M98.428 1332.923h-4.98v-5.03m0-1237.519v-5.03h4.98m1244.59 0h4.979v5.03m0 1237.518v5.031h-4.978"/><path vector-effect="non-scaling-stroke" d="M350.86 191.506c-7.72 86.044-77.512 154.206-164.268 159.372m-26.496-.394C74.052 342.764 5.891 272.972.724 186.216m.395-26.495C8.839 73.677 78.63 5.516 165.386.348m26.496.395c86.044 7.72 154.205 77.512 159.373 164.268"/><path d="M181.293 351.115a179.743 179.743 0 0 1-10.608 0M.488 180.917a179.668 179.668 0 0 1 0-10.607M170.685.112a179.787 179.787 0 0 1 10.608 0M351.49 170.31a179.692 179.692 0 0 1 0 10.607"/></g></svg>