<svg xmlns="http://www.w3.org/2000/svg" width="1527" height="1507" viewBox="0 0 1527 1507"><g fill="none" fill-rule="evenodd" stroke="#FFF" vector-effect="non-scaling-stroke"><g stroke-width="3.612"><path vector-effect="non-scaling-stroke" stroke-dasharray="10.768 10.768" d="M1432.288 9.157L1.27 1425.806"/><path vector-effect="non-scaling-stroke" stroke-dasharray="10.755 10.755" d="M5.119 1.279l1458.34 1446.703"/></g><path vector-effect="non-scaling-stroke" stroke-dasharray="9.957 9.957" stroke-width="3.5" d="M1334.062 1333.923H104.406"/><path vector-effect="non-scaling-stroke" stroke-dasharray="10.061 10.061" stroke-width="3.5" d="M94.45 1318.832V96.403"/><path vector-effect="non-scaling-stroke" stroke-dasharray="9.957 9.957" stroke-width="3.5" d="M109.384 86.343H1339.04"/><path vector-effect="non-scaling-stroke" stroke-dasharray="10.061 10.061" stroke-width="3.5" d="M1348.997 101.435v1222.427"/><path vector-effect="non-scaling-stroke" stroke-width="3.5" d="M99.428 1333.923h-4.98v-5.03m0-1237.519v-5.03h4.98m1244.59 0h4.979v5.03m0 1237.518v5.031h-4.978"/><g stroke-width="3.612" vector-effect="non-scaling-stroke"><path vector-effect="non-scaling-stroke" stroke-dasharray="10.609 10.609" d="M1523.86 1344.707c-7.72 86.043-77.512 154.204-164.268 159.371m-26.496-.394c-86.044-7.72-154.205-77.512-159.372-164.268m.395-26.495c7.72-86.044 77.512-154.205 164.267-159.373m26.496.395c86.044 7.72 154.205 77.512 159.373 164.268"/><path d="M1354.293 1504.315a179.743 179.743 0 0 1-10.608 0m-170.197-170.198a179.668 179.668 0 0 1 0-10.607m170.197-170.198a179.787 179.787 0 0 1 10.608 0m170.198 170.198a179.692 179.692 0 0 1 0 10.607"/></g></g></svg>