<svg xmlns="http://www.w3.org/2000/svg" width="1448" height="1507" viewBox="0 0 1448 1507"><g fill="none" fill-rule="evenodd" stroke="#FFF"><g stroke-width="3.612"><path vector-effect="non-scaling-stroke" stroke-dasharray="10.768 10.768" d="M1432.288 1.287L1.27 1417.936"/><path vector-effect="non-scaling-stroke" stroke-dasharray="10.755 10.755" d="M5.119 2.409l1441.06 1429.56"/></g><path vector-effect="non-scaling-stroke" stroke-dasharray="9.957 9.957" stroke-width="3.5" d="M1334.062 1335.053H104.406"/><path vector-effect="non-scaling-stroke" stroke-dasharray="10.061 10.061" stroke-width="3.5" d="M94.45 1319.961V97.534"/><path vector-effect="non-scaling-stroke" stroke-dasharray="9.957 9.957" stroke-width="3.5" d="M109.384 87.473H1339.04"/><path vector-effect="non-scaling-stroke" stroke-dasharray="10.061 10.061" stroke-width="3.5" d="M1348.997 102.565v1222.427"/><path vector-effect="non-scaling-stroke" stroke-width="3.5" d="M99.428 1335.053h-4.98v-5.03m0-1237.519v-5.03h4.98m1244.59 0h4.979v5.03m0 1237.518v5.031h-4.978"/><path vector-effect="non-scaling-stroke" d="M1446.005 1476.31c-25.036 16.627-54.583 27.003-86.413 28.898m-26.496-.394c-86.044-7.72-154.205-77.512-159.372-164.268m.395-26.495c7.72-86.044 77.512-154.205 164.267-159.373m26.496.395c29.848 2.678 57.545 12.826 81.206 28.56" stroke-dasharray="10.609 10.609" stroke-width="3.612"/></g></svg>