<svg xmlns="http://www.w3.org/2000/svg" width="16" height="16" viewBox="0 0 16 16"><path fill-rule="evenodd" d="M14.885 1h-13.7C.533 1 0 1.52 0 2.162v13.794c0 .642.532 1.163 1.186 1.163h13.699c.656 0 1.189-.52 1.189-1.163V2.162c0-.642-.533-1.162-1.19-1.162zM2.383 14.735h2.386V7.043H2.383v7.692zm1.193-8.743a1.384 1.384 0 0 1-1.383-1.387 1.383 1.383 0 1 1 2.765 0c0 .766-.62 1.387-1.382 1.387zm10.122 8.743h-2.384v-3.74c0-.892-.015-2.04-1.24-2.04-1.24 0-1.43.972-1.43 1.976v3.804h-2.38V7.042h2.285v1.053h.033c.318-.605 1.096-1.243 2.256-1.243 2.414 0 2.86 1.593 2.86 3.664v4.22z"/></svg>