<svg xmlns="http://www.w3.org/2000/svg" width="16" height="13" viewBox="0 0 16 13"><path fill-rule="evenodd" d="M5.032 13.04c6.038 0 9.34-5.017 9.34-9.366 0-.143-.003-.285-.01-.426A6.67 6.67 0 0 0 16 1.543a6.484 6.484 0 0 1-1.885.518 3.296 3.296 0 0 0 1.443-1.82 6.545 6.545 0 0 1-2.084.8 3.275 3.275 0 0 0-2.396-1.042 3.289 3.289 0 0 0-3.283 3.293c0 .258.029.51.085.75A9.31 9.31 0 0 1 1.114.602a3.293 3.293 0 0 0-.445 1.655c0 1.142.58 2.151 1.46 2.74a3.27 3.27 0 0 1-1.486-.41l-.001.04a3.292 3.292 0 0 0 2.634 3.228 3.295 3.295 0 0 1-1.482.056 3.287 3.287 0 0 0 3.066 2.287A6.573 6.573 0 0 1 0 11.561a9.273 9.273 0 0 0 5.032 1.48"/></svg>