<svg xmlns="http://www.w3.org/2000/svg" width="240" height="60" viewBox="0 0 240 60"><path d="M0 11.672C0 5.817 4.73 1.087 10.587 1.087c4.182 0 7.7 2.163 9.46 5.451l-3.634 2.02c-1.211-2.106-3.173-3.433-5.826-3.433-3.577 0-6.374 2.97-6.374 6.547 0 3.577 2.797 6.548 6.374 6.548 2.653 0 4.615-1.327 5.826-3.433l3.634 2.02c-1.76 3.287-5.278 5.45-9.46 5.45A10.574 10.574 0 0 1 0 11.673zm22.556 10.24V.855h3.951v7.845c.923-.98 2.336-1.528 3.923-1.528 3.634 0 5.768 2.538 5.768 6.374v8.364h-3.951v-7.7c0-2.048-.894-3.433-2.683-3.433-1.326 0-2.451.692-3.057 1.644v9.49h-3.951zm21.776-18.72a2.517 2.517 0 0 1-2.538 2.51c-1.356 0-2.51-1.125-2.51-2.51 0-1.384 1.154-2.509 2.51-2.509a2.517 2.517 0 0 1 2.538 2.51zm-4.5 18.72V7.49h3.952v14.421h-3.952zm21.315-3.837c-1.24 2.48-3.836 4.154-6.835 4.154-4.27 0-7.644-3.173-7.644-7.528 0-4.356 3.375-7.528 7.644-7.528 3 0 5.595 1.673 6.835 4.153l-3.432 1.846c-.577-1.327-1.817-2.307-3.403-2.307-2.077 0-3.663 1.615-3.663 3.836 0 2.22 1.586 3.836 3.663 3.836 1.586 0 2.826-.98 3.403-2.308l3.432 1.846zm12.432 2.77c-.837.836-2.164 1.384-3.692 1.384-4.269 0-7.124-3.49-7.124-7.528 0-4.038 2.855-7.528 7.124-7.528 1.528 0 2.855.548 3.692 1.355V7.49h3.951v14.421h-3.951v-1.067zm-6.72-6.144c0 2.134 1.47 3.922 3.605 3.922 1.528 0 2.451-.663 3.115-1.586v-4.701c-.664-.894-1.587-1.558-3.115-1.558-2.135 0-3.606 1.788-3.606 3.923zm28.438 6.403c0 5.105-3.922 6.691-7.557 6.691-2.365 0-4.759-.634-6.374-2.019l2.163-2.942a6.41 6.41 0 0 0 4.154 1.5c1.76 0 3.663-.98 3.663-3.201v-.894c-.837.836-2.135 1.384-3.721 1.384-4.153 0-7.24-3.173-7.21-7.21.028-4.039 3.057-7.24 7.21-7.24 1.586 0 2.884.548 3.72 1.355V7.49h3.952v13.614zM84.51 14.412c0 2.106 1.586 3.635 3.72 3.635 1.53 0 2.481-.693 3.116-1.616v-4.095c-.635-.894-1.587-1.558-3.115-1.558-2.135 0-3.721 1.5-3.721 3.634zm28.814.289c0 4.21-3.404 7.528-7.586 7.528s-7.585-3.317-7.585-7.528c0-4.211 3.403-7.528 7.585-7.528s7.586 3.317 7.586 7.528zm-11.191 0c0 2.22 1.529 3.836 3.605 3.836 2.077 0 3.577-1.615 3.577-3.836s-1.5-3.836-3.577-3.836c-2.076 0-3.605 1.615-3.605 3.836zm20.911 7.21V1.433h4.182v16.498h8.768v3.98h-12.95zm14.277-7.47c0-4.269 3.202-7.528 7.586-7.528 3.778 0 7.095 2.423 7.095 7.096 0 .346 0 .75-.058 1.355h-10.787c.231 1.933 1.933 3 3.836 3 1.789 0 3.087-.837 3.721-1.817l2.942 2.192c-1.327 1.932-3.663 3.23-6.692 3.23-4.297 0-7.643-2.97-7.643-7.528zm7.47-4.269c-1.47 0-3.115.75-3.49 2.51h6.75c-.346-1.702-1.789-2.51-3.26-2.51zm20.017 10.413c-.836.836-2.163 1.384-3.692 1.384-4.268 0-7.124-3.49-7.124-7.528 0-4.038 2.856-7.528 7.124-7.528 1.53 0 2.856.548 3.692 1.356V7.23h3.952v14.422h-3.952v-1.067zm-6.72-6.144c0 2.135 1.471 3.923 3.605 3.923 1.529 0 2.452-.664 3.115-1.587v-4.7c-.663-.895-1.586-1.558-3.115-1.558-2.134 0-3.605 1.788-3.605 3.922zm14.48 7.21V7.232h3.95v1.73c.49-1.038 1.846-1.904 3.346-1.904.721 0 1.356.145 1.673.26l-.606 3.72a4.143 4.143 0 0 0-1.21-.172c-1.097 0-2.51.461-3.202 1.615v9.172h-3.952zm11.161 0V7.232h3.952v1.21c.923-.98 2.336-1.528 3.922-1.528 3.634 0 5.769 2.538 5.769 6.374v8.365h-3.952V13.95c0-2.048-.894-3.432-2.682-3.432-1.327 0-2.452.692-3.057 1.644v9.489h-3.952zm21.777-18.718a2.517 2.517 0 0 1-2.539 2.51c-1.355 0-2.509-1.126-2.509-2.51 0-1.385 1.154-2.51 2.51-2.51a2.517 2.517 0 0 1 2.538 2.51zm-4.5 18.719V7.23h3.952v14.422h-3.952zm7.759 0V7.23h3.951v1.212c.923-.98 2.337-1.529 3.923-1.529 3.634 0 5.768 2.538 5.768 6.374v8.365h-3.951V13.95c0-2.048-.894-3.432-2.682-3.432-1.327 0-2.452.692-3.058 1.644v9.489h-3.951zm31.237-.808c0 5.105-3.923 6.692-7.557 6.692-2.365 0-4.76-.635-6.375-2.02l2.164-2.941a6.41 6.41 0 0 0 4.153 1.5c1.76 0 3.663-.981 3.663-3.202v-.894c-.836.836-2.134 1.384-3.72 1.384-4.154 0-7.24-3.172-7.211-7.21.028-4.038 3.057-7.24 7.21-7.24 1.587 0 2.885.548 3.721 1.356V7.23h3.952v13.614zm-10.788-6.691c0 2.105 1.587 3.634 3.721 3.634 1.529 0 2.48-.692 3.115-1.615v-4.096c-.634-.894-1.586-1.557-3.115-1.557-2.134 0-3.72 1.5-3.72 3.634zM1.212 54.129V33.65H13.96v3.98H5.394v4.212h6.836v3.98H5.394v4.327h8.566v3.98H1.212zm14.19 0l5.596-7.067-5.451-7.355h4.672l3.26 4.413 3.259-4.413h4.701l-5.451 7.355 5.595 7.067h-4.73l-3.346-4.269-3.345 4.269h-4.76zm30.891-3.836c-1.24 2.48-3.836 4.153-6.835 4.153-4.27 0-7.644-3.173-7.644-7.528 0-4.355 3.375-7.528 7.644-7.528 3 0 5.595 1.673 6.835 4.154l-3.432 1.845c-.577-1.326-1.817-2.307-3.403-2.307-2.077 0-3.664 1.615-3.664 3.836s1.587 3.836 3.664 3.836c1.586 0 2.826-.98 3.403-2.307l3.432 1.846zm2.538 3.836V33.074h3.952v7.845c.923-.98 2.336-1.529 3.923-1.529 3.634 0 5.768 2.538 5.768 6.374v8.365h-3.951v-7.701c0-2.048-.895-3.432-2.683-3.432-1.327 0-2.451.692-3.057 1.644v9.489H48.83zm27.17-1.067c-.836.836-2.163 1.384-3.692 1.384-4.268 0-7.124-3.49-7.124-7.528 0-4.038 2.856-7.528 7.124-7.528 1.53 0 2.856.548 3.692 1.356v-1.039h3.952V54.13H76v-1.067zm-6.72-6.144c0 2.135 1.471 3.923 3.605 3.923 1.529 0 2.452-.664 3.115-1.587v-4.7c-.663-.895-1.586-1.558-3.115-1.558-2.134 0-3.605 1.788-3.605 3.922zm14.48 7.21v-14.42h3.95v1.21c.924-.98 2.337-1.528 3.923-1.528 3.634 0 5.769 2.538 5.769 6.374v8.365H93.45v-7.701c0-2.048-.894-3.432-2.682-3.432-1.327 0-2.452.692-3.057 1.644v9.489H83.76zm31.236-.807c0 5.105-3.923 6.692-7.557 6.692-2.365 0-4.759-.635-6.374-2.02l2.163-2.941a6.41 6.41 0 0 0 4.153 1.5c1.76 0 3.663-.981 3.663-3.202v-.894c-.836.836-2.134 1.384-3.72 1.384-4.154 0-7.24-3.172-7.211-7.21.029-4.038 3.057-7.24 7.21-7.24 1.587 0 2.885.548 3.721 1.356v-1.039h3.952v13.614zM104.21 46.63c0 2.105 1.586 3.634 3.72 3.634 1.529 0 2.48-.692 3.115-1.615v-4.096c-.634-.894-1.586-1.557-3.115-1.557-2.134 0-3.72 1.5-3.72 3.634zm13.671.288c0-4.269 3.202-7.528 7.586-7.528 3.778 0 7.095 2.423 7.095 7.096 0 .346 0 .75-.058 1.355h-10.787c.23 1.933 1.933 3 3.836 3 1.789 0 3.086-.837 3.721-1.817l2.942 2.192c-1.327 1.932-3.663 3.23-6.692 3.23-4.297 0-7.643-2.97-7.643-7.528zm7.47-4.269c-1.47 0-3.115.75-3.49 2.51h6.75c-.346-1.702-1.789-2.51-3.26-2.51z" fill="#241F21" fill-rule="evenodd"/></svg>