<svg xmlns="http://www.w3.org/2000/svg" xmlns:xlink="http://www.w3.org/1999/xlink" width="35" height="185" viewBox="0 0 35 185"><defs><path id="mobile-logo-a" d="M0 .722h34.697V38.09H0z"/></defs><g fill="none" fill-rule="evenodd"><g transform="translate(0 -.722)"><mask id="mobile-logo-b" fill="#fff"><use xlink:href="#mobile-logo-a"/></mask><path fill="#241F21" d="M.001 19.608C-.109 9.325 8.178.835 18.575.723c6.643-.07 12.528 3.27 15.905 8.374l-8.599 6.25c-1.473-2.665-4.019-4.447-7.196-4.414-4.478.048-7.76 3.56-7.708 8.557.053 4.995 3.411 8.436 7.89 8.388 3.176-.034 5.685-1.872 7.1-4.566l8.73 6.061c-3.267 5.178-9.079 8.644-15.722 8.715C8.577 38.2.11 29.89.001 19.608" mask="url(#mobile-logo-b)"/></g><path fill="#241F21" d="M12.986 67.926h4.478v47.145h16.06v4.273H12.986z"/><g fill="#FF6E5C"><path d="M31.122 184.278c-.615 0-1.23-.236-1.7-.706l-27.56-27.638a2.415 2.415 0 0 1 0-3.409 2.4 2.4 0 0 1 3.399 0l27.56 27.638a2.417 2.417 0 0 1 0 3.409 2.396 2.396 0 0 1-1.7.706"/><path d="M3.56 184.278a2.396 2.396 0 0 1-1.7-.706 2.417 2.417 0 0 1 0-3.409l27.562-27.638a2.4 2.4 0 0 1 3.399 0 2.417 2.417 0 0 1 0 3.409L5.26 183.572a2.396 2.396 0 0 1-1.7.706"/></g></g></svg>